<?xml version="1.0" encoding="UTF-8"?> <svg xmlns="http://www.w3.org/2000/svg" width="24" height="24" viewBox="0 0 24 24" fill="none"><g clip-path="url(#clip0_96_0)"><path d="M8.80407 21.7181C8.64479 21.7736 8.38118 21.8374 8.12592 21.9567C7.81502 22.0995 7.52777 22.2986 7.21687 22.4415C6.41144 22.807 5.51003 22.3381 5.36675 21.4636C5.30276 21.0897 5.32711 20.7 5.31111 20.3102C5.27911 19.4197 4.60932 18.7275 3.72391 18.688C3.34902 18.6721 2.98247 18.6804 2.60758 18.6402C1.69017 18.5528 1.16366 17.6304 1.54689 16.7953C1.69017 16.4853 1.87379 16.1913 2.03307 15.8889C2.4636 15.0615 2.21669 14.1314 1.43491 13.63C1.15601 13.4552 0.860405 13.2957 0.589148 13.1133C-0.20028 12.5564 -0.20028 11.4509 0.612796 10.8947C0.868056 10.7199 1.13097 10.5764 1.39457 10.4175C2.25564 9.88489 2.50325 8.96248 2.02472 8.0796C1.88144 7.80912 1.71382 7.55459 1.58584 7.27648C1.15531 6.38597 1.72147 5.40739 2.71052 5.34427C3.02977 5.32069 3.34832 5.33665 3.66757 5.32832C4.59263 5.30474 5.29442 4.60427 5.31876 3.68186C5.32641 3.37947 5.31876 3.06946 5.34241 2.76708C5.42239 1.67752 6.40309 1.12893 7.36849 1.63799C7.53611 1.72538 7.70374 1.80513 7.85467 1.90847C8.81172 2.56872 10.024 2.28229 10.5582 1.16916C10.6458 0.978432 10.7655 0.803659 10.8851 0.620564C11.4443 -0.208218 12.5606 -0.208218 13.1191 0.626806C13.3028 0.904916 13.4544 1.19967 13.6373 1.47778C14.1158 2.2171 15.0492 2.47163 15.8387 2.07423C16.1336 1.92304 16.4132 1.74826 16.7081 1.59707C17.5692 1.16777 18.5109 1.66088 18.6382 2.61519C18.6862 2.96543 18.6618 3.33092 18.6778 3.68879C18.7015 4.5793 19.4033 5.29503 20.3047 5.32694C20.5836 5.33457 20.8632 5.33457 21.1421 5.33457C22.3224 5.36647 22.9046 6.37626 22.3384 7.41796C22.2348 7.60106 22.1311 7.78346 22.0275 7.97488C21.469 8.98467 21.7166 9.8835 22.7133 10.4799C22.9289 10.6069 23.1522 10.7345 23.3594 10.8697C24.2129 11.4502 24.2129 12.5633 23.3594 13.1286C23.1202 13.2874 22.8649 13.431 22.6097 13.5822C21.7486 14.1072 21.501 15.0296 21.9719 15.9201C22.1151 16.1906 22.2828 16.4451 22.4107 16.7232C22.8413 17.6061 22.2988 18.5604 21.3257 18.6402C20.9828 18.6721 20.6399 18.6637 20.2887 18.6797C19.3796 18.7192 18.7015 19.4114 18.6695 20.3178C18.6618 20.6202 18.6695 20.9302 18.6535 21.2326C18.5735 22.3222 17.5928 22.8708 16.6198 22.3617C16.3965 22.2424 16.1809 22.1155 15.9576 21.9962C15.0242 21.4871 14.1075 21.734 13.5566 22.6322C13.405 22.8784 13.2617 23.1329 13.1018 23.3798C12.5432 24.2072 11.4269 24.2072 10.8684 23.3722C10.6848 23.0941 10.5255 22.8076 10.3502 22.5212C10.0324 21.9886 9.52186 21.7736 8.80407 21.7181ZM11.3163 13.3838C10.6465 12.7076 10.0004 12.0557 9.35423 11.4037C8.76373 10.8149 8.03829 10.7678 7.52777 11.2845C7.04159 11.7852 7.08889 12.5169 7.6474 13.0821C8.52446 13.965 9.40987 14.8479 10.2876 15.7224C11.0214 16.4541 11.6272 16.4465 12.377 15.7065C14.0678 14.0205 15.751 12.3345 17.4419 10.6485C17.5379 10.5528 17.6331 10.4654 17.7131 10.362C18.04 9.95633 18.072 9.42369 17.8168 8.98606C17.5615 8.54844 17.067 8.30223 16.5565 8.4451C16.2935 8.51653 16.0223 8.68368 15.8227 8.88272C14.3315 10.3614 12.8479 11.8566 11.3163 13.3838Z" fill="#0C0C0D"></path></g><defs><clipPath id="clip0_96_0"><rect width="24" height="24" fill="white"></rect></clipPath></defs></svg> 