<?xml version="1.0" encoding="UTF-8"?> <svg xmlns="http://www.w3.org/2000/svg" width="18" height="18" viewBox="0 0 18 18" fill="none"><path fill-rule="evenodd" clip-rule="evenodd" d="M18 9C18 13.9706 13.9706 18 9 18C4.02944 18 0 13.9706 0 9C0 4.02944 4.02944 0 9 0C13.9706 0 18 4.02944 18 9ZM9.75 3.90466C9.75 3.49045 9.4142 3.15466 9 3.15466C8.5858 3.15466 8.25 3.49045 8.25 3.90466V9.3284V9.7219L8.5737 9.9455L12.239 12.4773C12.5798 12.7127 13.0469 12.6272 13.2824 12.2864C13.5178 11.9456 13.4323 11.4785 13.0915 11.2431L9.75 8.9349V3.90466Z" fill="black"></path></svg> 