<?xml version="1.0" encoding="UTF-8"?> <svg xmlns="http://www.w3.org/2000/svg" width="787" height="787" viewBox="0 0 787 787" fill="none"><path d="M585.797 240.209L518.017 559.859C512.903 582.419 499.568 588.031 480.617 577.407L377.343 501.303L327.513 549.23C321.999 554.744 317.385 559.358 306.757 559.358L314.177 454.177L505.584 281.218C513.908 273.798 503.78 269.687 492.65 277.107L256.022 426.102L154.152 394.219C131.993 387.299 131.594 372.059 158.764 361.432L557.22 207.923C575.668 201.006 591.811 212.034 585.797 240.209Z" fill="url(#paint0_linear_898_5)"></path><path d="M773.5 393.5C773.5 183.632 603.368 13.5 393.5 13.5C183.632 13.5 13.5 183.632 13.5 393.5C13.5 603.368 183.632 773.5 393.5 773.5C603.368 773.5 773.5 603.368 773.5 393.5Z" stroke="url(#paint1_linear_898_5)" stroke-width="27"></path><defs><linearGradient id="paint0_linear_898_5" x1="324.501" y1="140.499" x2="566.865" y2="737.046" gradientUnits="userSpaceOnUse"><stop stop-color="#6BBFEC" stop-opacity="0.7"></stop><stop offset="1" stop-color="#21A0E1"></stop></linearGradient><linearGradient id="paint1_linear_898_5" x1="202" y1="45" x2="556.902" y2="754.799" gradientUnits="userSpaceOnUse"><stop stop-color="#77C4ED"></stop><stop offset="1" stop-color="#20A0E1"></stop></linearGradient></defs></svg> 