<?xml version="1.0" encoding="UTF-8"?> <svg xmlns="http://www.w3.org/2000/svg" width="48" height="70" viewBox="0 0 48 70" fill="none"><g id="Group"><g id="Group_2"><g id="Clip path group"><mask id="mask0_226_146" style="mask-type:luminance" maskUnits="userSpaceOnUse" x="21" y="0" width="21" height="48"><g id="SVGID_2_"><path id="Vector" d="M23.5479 0.872155C23.3583 1.44095 23.0549 2.38895 22.7136 3.90574C22.0311 7.05308 21.0831 15.0542 22.9791 20.5525C24.8751 26.0509 27.1882 27.3781 28.9325 29.2741C30.6768 31.1701 36.0614 35.4171 36.1752 39.8537C36.2889 43.1906 34.8101 45.5417 33.5966 47.4377C39.4363 43.6836 41.5598 36.5547 41.2185 31.6251C40.6876 24.2687 35.303 17.8223 31.7765 13.2719C28.5912 9.17659 24.7992 1.51679 24.0788 0C23.8512 0.341278 23.7375 0.530877 23.5479 0.872155Z" fill="white"></path></g></mask><g mask="url(#mask0_226_146)"><path id="Vector_2" d="M19.3379 47.3998L21.0822 -0.720459L43.3032 0.0758567L41.5589 48.1961L19.3379 47.3998Z" fill="url(#paint0_linear_226_146)"></path></g></g></g><g id="Group_3"><g id="Clip path group_2"><mask id="mask1_226_146" style="mask-type:luminance" maskUnits="userSpaceOnUse" x="20" y="0" width="17" height="50"><g id="SVGID_5_"><path id="Vector_3" d="M23.2408 1.47854C22.8616 2.46446 21.1552 6.55979 20.8898 12.3994C20.6244 18.2391 20.814 21.614 22.9375 25.4059C25.061 29.2358 29.308 32.3452 30.6731 34.4308C32.0003 36.4785 33.6688 38.7537 33.4033 41.5977C33.1379 44.4037 31.659 46.3377 28.5496 48.6128C27.7912 49.1816 26.9949 49.5988 26.1986 49.8642C29.1563 49.5988 31.6211 48.7266 33.6308 47.4373C34.8443 45.5413 36.2852 43.1903 36.2094 39.8534C36.0956 35.4168 30.711 31.1697 28.9667 29.2737C27.2224 27.3778 24.9093 26.0506 23.0133 20.5522C21.1173 15.0538 22.0653 7.05275 22.7479 3.90541C23.0891 2.38862 23.3546 1.4027 23.5821 0.871826C23.4304 1.06143 23.3167 1.28894 23.2408 1.47854Z" fill="white"></path></g></mask><g mask="url(#mask1_226_146)"><path id="Vector_4" d="M37.1965 0.909804L36.2864 50.1676L19.7534 49.8643L20.6635 0.606445L37.1965 0.909804Z" fill="url(#paint1_linear_226_146)"></path></g></g></g><g id="Group_4"><g id="Clip path group_3"><mask id="mask2_226_146" style="mask-type:luminance" maskUnits="userSpaceOnUse" x="6" y="1" width="20" height="48"><g id="SVGID_8_"><path id="Vector_5" d="M6.63927 32.0426C6.67719 38.7544 9.78662 45.7316 16.9155 48.6136C16.9535 48.6136 16.9914 48.6136 17.0672 48.6136C18.4702 48.6136 19.7974 48.4619 20.7454 48.0827C24.0445 46.6796 25.4854 44.139 25.4854 40.1195C25.4854 35.9863 22.7552 32.9527 20.4042 29.5399C18.0531 26.165 17.2568 22.5247 17.8256 16.23C18.3944 9.93536 21.2763 4.28532 21.6934 3.33732C21.9589 2.76852 22.4518 1.70677 22.9448 1.06213C16.0434 8.98737 6.60135 23.6623 6.63927 32.0426Z" fill="white"></path></g></mask><g mask="url(#mask2_226_146)"><path id="Vector_6" d="M6.60099 48.8032L6.10803 1.06216L25.4471 0.872559L25.9022 48.6136L6.60099 48.8032Z" fill="url(#paint2_linear_226_146)"></path></g></g></g><g id="Group_5"><g id="Clip path group_4"><mask id="mask3_226_146" style="mask-type:luminance" maskUnits="userSpaceOnUse" x="16" y="0" width="13" height="50"><g id="SVGID_11_"><path id="Vector_7" d="M23.7734 0.0758399C23.7354 0.0758399 23.7354 0.0758399 23.7734 0.0758399C23.7354 0.11376 23.7354 0.11376 23.7354 0.11376C23.47 0.417118 23.1287 0.796315 22.9012 1.06175C22.4082 1.66847 21.9153 2.73022 21.6498 3.33694C21.2327 4.28494 18.3508 9.93498 17.782 16.2297C17.2132 22.5244 18.0095 26.1647 20.3606 29.5395C22.7116 32.9144 25.4418 35.9859 25.4418 40.1191C25.4418 44.1386 24.0009 46.6793 20.7018 48.0823C19.7539 48.4994 18.4267 48.6132 17.0236 48.6132C16.9857 48.6132 16.9478 48.6132 16.8719 48.6132C17.5166 48.8786 18.1612 49.0682 18.8438 49.2578C19.6401 49.182 20.9673 49.0303 23.4321 48.1202C26.314 47.0585 28.3237 44.9349 28.5133 40.8396C28.7029 36.7443 25.9348 33.7486 24.1905 31.6251C22.4462 29.5016 21.5361 28.1365 20.0951 25.1029C18.6163 22.0693 18.7679 16.3055 19.3367 12.2102C19.9055 8.11483 21.9532 3.79198 22.8633 1.70639C23.1666 0.985915 23.47 0.455038 23.7354 0.11376C23.7734 0.07584 23.7734 0.0758399 23.7734 0.0758399L23.8492 0L23.7734 0.0758399Z" fill="white"></path></g></mask><g mask="url(#mask3_226_146)"><path id="Vector_8" d="M28.7408 -0.455078L30.5989 49.1819L16.9098 49.7128L15.0518 0.0378788L28.7408 -0.455078Z" fill="url(#paint3_linear_226_146)"></path></g></g></g><g id="Group_6"><path id="Vector_9" d="M0 70H3.07151V58.3965H8.87323V55.4767H0V70Z" fill="#363636"></path><path id="Vector_10" d="M16.5703 63.2502L13.9159 55.4387H10.541L14.9776 66.17C14.9776 66.17 14.9776 66.3975 14.826 66.5871C14.6743 66.7767 14.5605 66.8905 14.333 66.9663C14.1055 67.0801 13.9159 67.0422 13.5746 67.0422H12.2095V69.8862H13.84C14.5984 69.8862 15.281 69.7724 15.7739 69.507C16.2669 69.2415 16.684 68.9761 17.0253 68.559C17.4045 68.1039 17.7458 67.4972 17.9733 66.9663L22.3341 55.4387H19.073L16.5703 63.2502Z" fill="#363636"></path><path id="Vector_11" d="M44.63 55.4767L42.1273 63.2882L39.4729 55.4767H36.098L40.5346 66.208C40.5346 66.208 40.5346 66.4355 40.383 66.6251C40.2313 66.8147 40.1175 66.9285 39.89 67.0043C39.6625 67.1181 39.4729 67.0801 39.1316 67.0801H37.7665V69.9241H39.397C40.1554 69.9241 40.838 69.8104 41.3309 69.5449C41.8239 69.2795 42.241 69.014 42.5823 68.5969C42.9615 68.1419 43.3028 67.5352 43.5303 67.0043L47.8911 55.4767H44.63Z" fill="#363636"></path><path id="Vector_12" d="M32.4578 56.0834C31.7373 55.6662 30.8652 55.4387 29.8034 55.4387H24.4188V69.962H27.5282V65.2599H29.6897C30.7514 65.2599 31.6236 65.0703 32.382 64.6532C33.1025 64.2361 33.6713 63.6673 34.0884 62.9468C34.4676 62.2264 34.6572 61.3542 34.6572 60.4062C34.6572 59.4582 34.4676 58.5861 34.0884 57.8656C33.7092 57.0693 33.1783 56.5005 32.4578 56.0834ZM31.434 61.6576C31.2444 62.0368 30.9789 62.3022 30.6377 62.5297C30.2585 62.7193 29.8034 62.8331 29.2726 62.8331H27.5662V57.9793H29.2726C29.8414 57.9793 30.2964 58.0931 30.6377 58.2827C31.0169 58.4723 31.2823 58.7757 31.434 59.1169C31.6236 59.4961 31.6994 59.9133 31.6994 60.3683C31.7373 60.8613 31.6236 61.2784 31.434 61.6576Z" fill="#363636"></path></g></g><defs><linearGradient id="paint0_linear_226_146" x1="30.9728" y1="33.915" x2="31.6752" y2="14.5032" gradientUnits="userSpaceOnUse"><stop stop-color="#43AA45"></stop><stop offset="6.92613e-08" stop-color="#43AA45"></stop><stop offset="1" stop-color="#A1C334"></stop></linearGradient><linearGradient id="paint1_linear_226_146" x1="28.5962" y1="18.5456" x2="28.311" y2="33.9253" gradientUnits="userSpaceOnUse"><stop stop-color="#43AA45"></stop><stop offset="6.92613e-08" stop-color="#43AA45"></stop><stop offset="0.2338" stop-color="#59B041"></stop><stop offset="1" stop-color="#A1C334"></stop></linearGradient><linearGradient id="paint2_linear_226_146" x1="16.1284" y1="37.2748" x2="15.6426" y2="-10.1952" gradientUnits="userSpaceOnUse"><stop stop-color="#26408D"></stop><stop offset="0.6565" stop-color="#2B91C8"></stop><stop offset="1" stop-color="#2B91C8"></stop></linearGradient><linearGradient id="paint3_linear_226_146" x1="22.2234" y1="8.55527" x2="23.5214" y2="43.2764" gradientUnits="userSpaceOnUse"><stop stop-color="#26408D"></stop><stop offset="0.6565" stop-color="#2B91C8"></stop><stop offset="1" stop-color="#2B91C8"></stop></linearGradient></defs></svg> 